<svg xmlns="http://www.w3.org/2000/svg" width="60" height="32" fill="none" viewBox="0 0 60 32"><path fill="#fff" fill-opacity=".9" d="M30.44 25.16c-1.82 0-1.85-1.74-1.4-3.64l1.82-8.02c.41-1.74.73-3.49-.54-3.49-2.4 0-6.43 6.87-8.1 14.7a.1.1 0 0 1-.09.07H19a.1.1 0 0 1-.1-.1l4.36-20.56c.4-1.97.1-2.67-.94-2.97l-.03-.06.03-.09a.1.1 0 0 1 .07-.06L27.35 0h.01q.1.01.1.11l-3.51 16.38c-.01.05.06.08.09.03 2.37-5.25 5.05-8.72 8.32-8.72 2.59 0 2.59 2.66 1.82 5.95l-1.76 7.54c-.16.67-.35 1.53.16 1.53.37 0 1.12-.55 2.14-1.79a.1.1 0 0 1 .13 0l.16.13a.1.1 0 0 1 .02.11c-1.47 2.47-3.07 3.89-4.59 3.89M42.07 5.37a2.08 2.08 0 1 1 0-4.15 2.08 2.08 0 0 1-.01 4.16M38.2 25.15c-1.88 0-1.75-2.1-1.4-3.65l2.1-9.85c.16-.7.32-1.52-.19-1.52-.34 0-.94.53-1.75 1.48a.1.1 0 0 1-.15 0l-.12-.16a.1.1 0 0 1 0-.1c1.3-2.24 2.84-3.57 4.26-3.57 1.79 0 1.72 1.78 1.34 3.65l-2.1 9.85-.02.03c-.1.46-.3 1.4.2 1.4.45 0 1.23-.7 2.08-1.7a.1.1 0 0 1 .13 0l.18.14q.05.05.02.12c-1.46 2.45-3.03 3.88-4.58 3.88"/><path fill="#fff" fill-opacity=".9" fill-rule="evenodd" d="M53.6 19.28c-1.97 4.05-4.03 5.86-6.52 5.86-2.01 0-3.42-1.74-3.42-4.85 0-5.74 4.1-12.52 10.16-12.52 1.53 0 4.37.94 5.17 1.8q.05.07.03.16l-2.47 11.55c-.1.49-.34 1.43.17 1.43.45 0 1.33-.7 2.18-1.7a.1.1 0 0 1 .13 0l.18.14q.05.05.02.12c-1.47 2.45-3.04 3.88-4.58 3.88q-.74-.01-1.1-.39c-.71-.68-.58-2.12-.32-3.27l.46-2.18c.01-.05-.07-.08-.1-.03m1.28-6c-1.12 5.58-4.24 9.45-6.35 9.45-1.12 0-1.88-.9-1.88-3.19 0-5.07 3.34-10.78 6.6-10.78 2.3 0 1.97 2.9 1.63 4.52m-41.55-5.5c3.71 0 5.49 2.57 5.49 6.21 0 5.45-3.9 11.16-9.9 11.16a8 8 0 0 1-2.18-.32.1.1 0 0 0-.11.07l-.8 3.8c-.42 2.03-.69 2.92.42 3q.05.02.05.07l-.03.18q0 .05-.06.05H.82a.06.06 0 0 1-.06-.07l.04-.19q0-.04.06-.06c1-.14 1.05-.55 1.57-2.96L6.2 11.26a.05.05 0 0 0-.06-.05q-.83.37-1.7.85a.1.1 0 0 1-.14-.05l-.13-.4a.1.1 0 0 1 .03-.1q1.1-.86 2.2-1.53a.2.2 0 0 0 .1-.12l.43-2.1q.02-.05.07-.08l3.43-1.43q.08-.01.08.06l-.4 1.9q0 .07.06.06c1.08-.3 2.16-.49 3.15-.49m2.22 6.5c0 4.91-2.76 9.89-6.02 9.89-2.3 0-2.23-2.49-1.9-4.06L9.77 9.93a.1.1 0 0 1 .06-.07 7 7 0 0 1 1.97-.3c2.54 0 3.74 1.61 3.74 4.72" clip-rule="evenodd"/></svg>