<svg xmlns="http://www.w3.org/2000/svg" width="24" height="25" fill="none" viewBox="0 0 24 25"><g fill="#afafaf" clip-path="url(#a)"><path d="M21 7.55a.75.75 0 0 1-1.01-.32 9 9 0 0 0-3.14-3.46.75.75 0 0 1 .8-1.27c1.56 1 2.83 2.4 3.67 4.04A.75.75 0 0 1 21 7.55m-17.65.09A.8.8 0 0 0 4 7.23a9 9 0 0 1 3.14-3.46.75.75 0 0 0-.8-1.27c-1.56 1-2.82 2.4-3.67 4.04a.75.75 0 0 0 .67 1.1m17.44 9.74a1.5 1.5 0 0 1-1.29 2.26h-3.82a3.75 3.75 0 0 1-7.35 0H4.5a1.5 1.5 0 0 1-1.3-2.26c.85-1.46 1.3-3.53 1.3-6a7.5 7.5 0 0 1 15 0c0 2.47.45 4.54 1.3 6m-6.67 2.26H9.88a2.25 2.25 0 0 0 4.24 0m5.38-1.5q-1.5-2.6-1.5-6.76a6 6 0 1 0-12 0q0 4.17-1.5 6.76z"/><path d="M21 7.55a.75.75 0 0 1-1.01-.32 9 9 0 0 0-3.14-3.46.75.75 0 0 1 .8-1.27c1.56 1 2.83 2.4 3.67 4.04A.75.75 0 0 1 21 7.55m-17.65.09A.8.8 0 0 0 4 7.23a9 9 0 0 1 3.14-3.46.75.75 0 0 0-.8-1.27c-1.56 1-2.82 2.4-3.67 4.04a.75.75 0 0 0 .67 1.1m17.44 9.74a1.5 1.5 0 0 1-1.29 2.26h-3.82a3.75 3.75 0 0 1-7.35 0H4.5a1.5 1.5 0 0 1-1.3-2.26c.85-1.46 1.3-3.53 1.3-6a7.5 7.5 0 0 1 15 0c0 2.47.45 4.54 1.3 6m-6.67 2.26H9.88a2.25 2.25 0 0 0 4.24 0m5.38-1.5q-1.5-2.6-1.5-6.76a6 6 0 1 0-12 0q0 4.17-1.5 6.76z"/></g><defs><clipPath id="a"><path fill="#fff" d="M0 .89h24v24H0z"/></clipPath></defs></svg>